<?xml version="1.0" standalone="no"?><!DOCTYPE svg PUBLIC "-//W3C//DTD SVG 1.1//EN" "http://www.w3.org/Graphics/SVG/1.1/DTD/svg11.dtd"><svg t="1727264769548" class="icon" viewBox="0 0 1024 1024" version="1.1" xmlns="http://www.w3.org/2000/svg" p-id="5907" xmlns:xlink="http://www.w3.org/1999/xlink" width="200" height="200"><path d="M682.198357 676.524422c-95.801277 0-173.737789 77.887217-173.737789 173.737789s77.936513 173.737789 173.737789 173.737789 173.72793-77.936513 173.727931-173.737789-77.936513-173.737789-173.727931-173.737789z m0 300.930572c-70.137932 0-127.182924-57.054851-127.182923-127.182924s57.06471-127.182924 127.182923-127.182924a127.182924 127.182924 0 0 1 0 254.365848z"  p-id="5908"></path><path d="M688.478631 750.004602a23.277433 23.277433 0 0 0-23.267574 23.267574v77.167499l-48.822468 38.992904A23.267574 23.267574 0 1 0 645.463197 925.773375l57.567526-45.983036a23.277433 23.277433 0 0 0 8.754918-18.190116v-88.328047a23.277433 23.277433 0 0 0-23.30701-23.267574zM892.41497 206.953236a24.943628 24.943628 0 0 0-39.761917-6.181681l-83.625238 83.625237c-18.83096 18.83096-47.806976 22.814053-67.387231 9.277452a50.794296 50.794296 0 0 1-7.354919-77.680175l86.760444-86.760444a24.933769 24.933769 0 0 0-6.191541-39.761917 272.910892 272.910892 0 0 0-380.562857 338.681224L65.647093 756.787691a67.811174 67.811174 0 0 0 0.059155 95.791418l63.561884 63.561884a67.870329 67.870329 0 0 0 95.860432 0l328.605181-328.615041a272.950329 272.950329 0 0 0 338.681225-380.562856z m-18.673214 158.534994A226.306731 226.306731 0 0 1 558.545006 539.295033a24.647853 24.647853 0 0 0-27.507004 5.16619L192.21875 883.23118a21.256309 21.256309 0 0 1-30.030945 0l-63.561884-63.561885a21.207013 21.207013 0 0 1-0.059155-29.97179l338.907984-338.917843a24.647853 24.647853 0 0 0 5.126754-27.477427 226.030675 226.030675 0 0 1 206.706758-317.60238 229.717994 229.717994 0 0 1 76.378768 13.073221l-64.311179 64.311179a97.349162 97.349162 0 0 0 13.802798 148.873035c19.047861 13.161954 42.650646 18.623918 66.490049 15.370401a106.054784 106.054784 0 0 0 60.268931-30.030944l61.126677-61.126677a229.106727 229.106727 0 0 1 10.67745 109.31816z"  p-id="5909"></path></svg>