<?xml version="1.0" standalone="no"?><!DOCTYPE svg PUBLIC "-//W3C//DTD SVG 1.1//EN" "http://www.w3.org/Graphics/SVG/1.1/DTD/svg11.dtd"><svg t="1693466026482" class="icon" viewBox="0 0 1024 1024" version="1.1" xmlns="http://www.w3.org/2000/svg" p-id="41733" data-spm-anchor-id="a313x.search_index.0.i25.793b3a81dSYVLG" xmlns:xlink="http://www.w3.org/1999/xlink" width="48" height="48"><path d="M516.862 189.07l-3.087 15.25c-0.495 2.415-0.941 4.552-1.38 6.61l-0.36 1.67c-1.903 8.786-3.742 16.28-5.812 23.456-5.773 20.014-17.539 42.095-33.602 64.629-8.463 11.873-17.578 23.125-26.81 33.483l-1.501 1.675a379.122 379.122 0 0 1-7.074 7.64l-2.014 2.095a808.44 808.44 0 0 1-3.355 3.436c-27.582 28.814-83.632 53.013-167.871 70.214C236.062 424.933 216 449.506 216 478.015v373.986c0 33.137 26.863 60 60 60h512.539c47.526 0 88.487-33.45 97.983-80.019l69.288-339.77c11.035-54.115-23.887-106.93-78.002-117.965l-1.263-0.25a100 100 0 0 0-3.807-0.649l-151.267-22.811 0.117-1.401c5.796-70.939 3.423-126.38-7.653-167.125-7.306-26.873-18.622-48.333-34.75-63.861C661.605 101.223 639.355 92.482 614.372 92.325h-0.505c-32.427-0.211-57.444 10.938-73.952 33.703-6.643 9.16-11.466 19.536-15.358 31.786l-0.527 1.685c-2.538 8.256-4.57 16.888-7.168 29.572z m67.356 30.146l3.18-15.697 0.539-2.603c3.995-19.074 6.91-27.993 10.265-32.62 0.883-1.217 1.517-1.743 2.613-2.231 2.301-1.026 6.158-1.74 12.05-1.74h0.802c6.96 0 11.489 1.753 15.58 5.692 5.728 5.515 11.064 15.635 15.21 30.882 10.02 36.859 10.997 96.003 2.093 176.168l-3.822 34.41 219.274 33.066a28 28 0 0 1 1.42 0.252c15.151 3.09 24.93 17.878 21.84 33.03l-69.288 339.77-0.083 0.395C813.083 830.823 801.71 840 788.539 840H288V487.759l1.936-0.417c90.22-19.61 154.388-48.028 192.74-87.296l5.603-5.762 0.296-0.308a453.782 453.782 0 0 0 10.983-11.9c10.872-12.197 21.602-25.443 31.693-39.599 20.398-28.616 35.805-57.53 44.151-86.466 2.568-8.902 4.781-17.916 7.002-28.173l0.74-3.459c0.347-1.64 0.7-3.335 1.074-5.163z" fill="#4270f5" p-id="41734" data-spm-anchor-id="a313x.search_index.0.i23.793b3a81dSYVLG" class="selected"></path><path d="M63 443m44.5 0l0 0q44.5 0 44.5 44.5l0 377q0 44.5-44.5 44.5l0 0q-44.5 0-44.5-44.5l0-377q0-44.5 44.5-44.5Z" fill="#4270f5" p-id="41735" data-spm-anchor-id="a313x.search_index.0.i22.793b3a81dSYVLG" class="selected"></path></svg>