<?xml version="1.0" standalone="no"?><!DOCTYPE svg PUBLIC "-//W3C//DTD SVG 1.1//EN" "http://www.w3.org/Graphics/SVG/1.1/DTD/svg11.dtd"><svg t="1693295515008" class="icon" viewBox="0 0 1024 1024" version="1.1" xmlns="http://www.w3.org/2000/svg" p-id="16328" xmlns:xlink="http://www.w3.org/1999/xlink" width="48" height="48"><path d="M853.9 101.5H170.1c-58.4 0-105.9 49.2-105.9 109.7V700c0 60.5 47.5 109.7 105.9 109.7h211.3l110.2 112.9 110.2-112.9H854c58.4 0 105.9-49.2 105.9-109.7V211.2c-0.1-60.5-47.6-109.7-106-109.7zM307 499c-27.6 0-50-22.4-50-50s22.4-50 50-50 50 22.4 50 50-22.4 50-50 50z m205 0c-27.6 0-50-22.4-50-50s22.4-50 50-50 50 22.4 50 50-22.4 50-50 50z m205 0c-27.6 0-50-22.4-50-50s22.4-50 50-50 50 22.4 50 50-22.4 50-50 50z" p-id="16329" fill="#8a919f"></path></svg>