<?xml version="1.0" standalone="no"?><!DOCTYPE svg PUBLIC "-//W3C//DTD SVG 1.1//EN" "http://www.w3.org/Graphics/SVG/1.1/DTD/svg11.dtd"><svg t="1693895715194" class="icon" viewBox="0 0 1024 1024" version="1.1" xmlns="http://www.w3.org/2000/svg" p-id="3719" xmlns:xlink="http://www.w3.org/1999/xlink" width="700" height="700"><path d="M512 86.016C278.528 86.016 86.016 278.528 86.016 512c0 233.472 192.512 425.984 425.984 425.984 233.472 0 425.984-192.512 425.984-425.984C937.984 278.528 745.472 86.016 512 86.016zM512 897.024c-212.992 0-385.024-172.032-385.024-385.024s172.032-385.024 385.024-385.024 385.024 172.032 385.024 385.024S724.992 897.024 512 897.024z" p-id="3720"></path><path d="M700.416 614.4c-45.056 57.344-114.688 94.208-188.416 94.208-73.728 0-139.264-32.768-188.416-90.112-8.192-8.192-20.48-12.288-28.672-4.096C286.72 618.496 286.72 634.88 294.912 643.072c53.248 69.632 131.072 106.496 217.088 106.496 86.016 0 167.936-40.96 221.184-106.496 8.192-8.192 4.096-20.48-4.096-28.672C716.8 606.208 704.512 606.208 700.416 614.4z" p-id="3721"></path><path d="M331.776 491.52c16.384 0 28.672-12.288 28.672-28.672l0-32.768c0-16.384-12.288-28.672-28.672-28.672S299.008 409.6 299.008 425.984l0 32.768C299.008 475.136 311.296 491.52 331.776 491.52z" p-id="3722"></path><path d="M688.128 491.52c16.384 0 28.672-12.288 28.672-28.672l0-32.768c0-16.384-12.288-28.672-28.672-28.672-16.384 0-28.672 12.288-28.672 28.672l0 32.768C659.456 475.136 671.744 491.52 688.128 491.52z" p-id="3723"></path></svg>