<?xml version="1.0" standalone="no"?><!DOCTYPE svg PUBLIC "-//W3C//DTD SVG 1.1//EN" "http://www.w3.org/Graphics/SVG/1.1/DTD/svg11.dtd"><svg t="1730257512655" class="icon" viewBox="0 0 1024 1024" version="1.1" xmlns="http://www.w3.org/2000/svg" p-id="3223" xmlns:xlink="http://www.w3.org/1999/xlink" width="200" height="200"><path d="M913.7 511.8c0-221.7-179.7-401.4-401.4-401.4S110.9 290.1 110.9 511.8s179.7 401.4 401.4 401.4 401.4-179.7 401.4-401.4z" fill="#FD9F13" p-id="3224"></path><path d="M512.3 959.3c-246.8 0-447.6-200.8-447.6-447.6C64.7 265 265.5 64.2 512.3 64.2S959.8 265 959.8 511.8c0 246.7-200.7 447.5-447.5 447.5z m0-798.9c-193.8 0-351.4 157.6-351.4 351.4 0 193.8 157.6 351.4 351.4 351.4 193.7 0 351.4-157.6 351.4-351.4 0-193.8-157.7-351.4-351.4-351.4z" fill="#FCEA10" p-id="3225"></path><path d="M609.9 416.5c-20.7 7-43.1-4.2-50-25.1-5.1-15.2-24.2-33.1-61.4-33.1-28.9 0-45.9 18.8-47.8 37.4-2.4 23.1 18.5 41.6 55.9 49.5C596 464 630.5 526.8 625 580.6c-5 48.9-40.1 88.2-87 102.6v24.2c0 21.9-17.7 39.7-39.5 39.7s-39.6-17.8-39.6-39.7v-23c-54.3-12.6-85.9-49.5-96.8-82.4-6.9-20.8 4.2-43.3 25-50.2 20.7-7 43.1 4.3 50 25 5.5 16.5 26.6 33.1 61.4 33.1 28.8 0 45.9-18.8 47.8-37.3 2.4-23.1-18.5-41.6-55.9-49.5-89.5-18.8-123.9-81.6-118.4-135.4 5-48.9 40.1-88.2 87-102.6v-24.2c0-21.9 17.7-39.7 39.6-39.7 21.8 0 39.6 17.8 39.6 39.7v23c54.2 12.6 85.8 49.5 96.8 82.4 6.7 20.7-4.4 43.2-25.1 50.2z" fill="#FFDE00" p-id="3226"></path></svg>