<?xml version="1.0" standalone="no"?><!DOCTYPE svg PUBLIC "-//W3C//DTD SVG 1.1//EN" "http://www.w3.org/Graphics/SVG/1.1/DTD/svg11.dtd"><svg t="1693896031596" class="icon" viewBox="0 0 1024 1024" version="1.1" xmlns="http://www.w3.org/2000/svg" p-id="5922" xmlns:xlink="http://www.w3.org/1999/xlink" width="700" height="700"><path d="M288 390.4c128.9 0 241.3 70.6 300.7 175.2C710.5 532 800 420.5 800 288 800 128.9 671.1 0 512 0S224 128.9 224 288c0 37.1 7 72.6 19.8 105.2 14.5-1.8 29.2-2.8 44.2-2.8z" p-id="5923"></path><path d="M812.7 458.4C753.3 563 640.9 633.6 512 633.6c-15 0-29.7-1-44.2-2.8C455 663.4 448 698.9 448 736c0 159.1 128.9 288 288 288s288-128.9 288-288c0-132.5-89.5-244-211.3-277.6z" p-id="5924"></path><path d="M471.3 513.8C421.5 472.7 357.6 448 288 448 128.9 448 0 576.9 0 736s128.9 288 288 288c69.6 0 133.5-24.7 183.3-65.8-50.5-60.1-80.9-137.6-80.9-222.2s30.4-162.1 80.9-222.2z" p-id="5925"></path></svg>