<?xml version="1.0" standalone="no"?>
<!DOCTYPE svg PUBLIC "-//W3C//DTD SVG 1.1//EN" "http://www.w3.org/Graphics/SVG/1.1/DTD/svg11.dtd">
<svg t="1736496235909" class="icon" viewBox="0 0 1108 1024" version="1.1"
  xmlns="http://www.w3.org/2000/svg" p-id="1937" xmlns:xlink="http://www.w3.org/1999/xlink"
  width="277" height="256">
  <path
    d="M682.444058 766.169662c-1.949063-83.740444 108.019633-142.944464 109.320657-144.438416 7.811092-4.249353 13.73743-9.98771 17.680077-16.413681 17.818589-15.404522 34.840734-33.420986 49.56259-54.311575 245.294995-122.019246 260.996329-291.968618 241.283091-403.416425l-0.593623-3.363865C1088.190454 82.553198 1014.145855 0.192928 927.9023 11.01171a163.736116 163.736116 0 0 0-55.948986 17.412947 42.632039 42.632039 0 0 0-44.086415-28.058589A2999.607652 2999.607652 0 0 1 283.687575 0.831072c-20.484947-1.845179-38.99115 11.066126-44.670145 30.052174a163.562976 163.562976 0 0 0-60.475362-19.871536C92.308406 0.192928 18.268754 82.548251 6.762357 144.230647l-0.603516 3.358918C-13.519768 258.89886 2.12715 428.506899 246.442667 550.526145a272.443362 272.443362 0 0 0 36.591922 46.732985c6.183575 6.331981 12.777739 12.312734 19.589566 18.110455a312.522821 312.522821 0 0 0 48.513855 33.707903c31.452135 25.6 71.096271 66.545159 69.488541 116.978396l-0.633198 17.957102c-2.503111-0.089043-5.006222-0.178087-7.509334-0.277025-45.758454-1.627517-98.877836 16.997411-127.198608 45.026319a3470.014454 3470.014454 0 0 1-21.459479 21.167614c-20.81144 20.475053-43.695614 56.315053-46.26798 85.699401-3.685411 40.549411 42.958531 78.016928 104.076985 81.529198a4009.924638 4009.924638 0 0 0 465.286802-0.123672c61.118454-3.541952 107.752502-41.03915 104.047304-81.58856-2.582261-29.379401-25.496116-65.214454-46.337236-85.694454a3935.197372 3935.197372 0 0 1-21.439691-21.128039c-28.360348-28.019014-81.489623-46.609314-127.238184-44.957063-7.534068 0.281971-12.040657-5.550377-13.509874-17.497043z m255.8417-672.129855c19.084986-2.384386 35.750957 9.695845 46.525218 20.252444 16.21086 15.914048 25.461488 35.295845 26.732831 44.036947l0.578782 3.848657c15.216541 98.803633-17.229913 186.575768-104.631033 257.216928 2.240928-22.176773 2.245874-45.911807-0.460058-71.373295l-23.354126-220.130319c5.481121-8.424502 22.241082-29.829565 54.608386-33.851362zM94.341565 162.177855l0.578783-3.848657c1.271343-8.746048 10.521971-28.127845 26.732831-44.041894 10.774261-10.556599 27.435285-22.641778 46.52027-20.252444 39.466048 4.887498 56.132019 36.384155 56.878995 37.784116l-0.26713-0.549102 3.16599-1.345545-22.720927 217.711304c-1.048734 7.039382-4.956754 36.384155-0.920116 75.944193-91.363556-71.304039-125.506783-160.639382-109.968696-261.401971z"
    p-id="1938"></path>
</svg>