<?xml version="1.0" standalone="no"?><!DOCTYPE svg PUBLIC "-//W3C//DTD SVG 1.1//EN" "http://www.w3.org/Graphics/SVG/1.1/DTD/svg11.dtd"><svg t="1608182329629" class="icon" viewBox="0 0 1024 1024" version="1.1" xmlns="http://www.w3.org/2000/svg" p-id="14785" xmlns:xlink="http://www.w3.org/1999/xlink" width="200" height="200"><defs><style type="text/css"></style></defs><path d="M515.863273 793.693091a122.181818 122.181818 0 0 0 115.665454-84.247273 6.935273 6.935273 0 0 0-12.567272-5.632c-0.186182 0.279273-18.757818 30.301091-91.136 40.075637a236.916364 236.916364 0 0 1-31.371637 2.234181c-50.734545-0.046545-73.309091-19.176727-73.541818-19.316363a6.981818 6.981818 0 0 0-10.472727 8.843636 122.461091 122.461091 0 0 0 103.424 58.042182z m389.12-448.512l-1.815273 0.093091c-42.356364-183.575273-204.427636-320.512-398.708364-320.512-199.586909 0-365.381818 144.523636-402.106181 335.685818A76.8 76.8 0 0 0 39.470545 436.224v151.970909c0 42.589091 34.117818 77.125818 76.334546 77.125818a75.403636 75.403636 0 0 0 58.740364-28.485818 354.676364 354.676364 0 0 0 189.44 199.214546 40.634182 40.634182 0 0 1 3.816727-6.190546c1.349818-1.768727 2.885818-3.258182 4.189091-3.258182 1.396364 0 2.606545 0.558545 3.723636 1.303273-20.154182-14.987636-92.858182-92.020364-108.590545-199.493818-6.888727-47.290182 28.532364-93.742545 69.818181-101.422546 66.234182-12.334545 132.142545-26.391273 198.376728-38.493091 42.123636-7.68 70.888727-30.766545 88.482909-69.259636 4.142545-8.983273 10.100364-27.136 12.8-53.387636a8.192 8.192 0 0 1 8.052363-6.888728c2.699636 0 5.026909 1.396364 6.56291 3.397819l1.861818-1.117091c26.065455 37.888 77.870545 121.856 85.317818 210.385454 8.517818 101.143273 3.723636 170.449455-73.681455 241.384728a6.330182 6.330182 0 0 0-2.048 4.654545c0 2.141091 1.163636 4.002909 2.839273 5.12l1.908364 0.930909c0.558545 0.093091 1.024 0.232727 1.536 0.232727 0.558545 0 1.024-0.139636 1.489454-0.279272 1.070545-0.558545 2.141091-1.256727 3.211637-1.861819a354.210909 354.210909 0 0 0 166.167272-201.867636c11.264 16.756364 28.858182 28.718545 49.338182 32.907636-32.814545 149.131636-165.841455 242.501818-330.658909 256.651637a67.490909 67.490909 0 0 0-62.696727-41.890909c-37.329455 0-67.537455 29.556364-67.537455 65.908363 0 36.398545 30.254545 65.908364 67.490909 65.908364 30.068364 0 55.249455-19.316364 64-45.847273 190.789818-15.499636 343.691636-128.884364 375.621819-305.058909a77.824 77.824 0 0 0 47.988363-71.726545V423.005091c0-42.961455-35.095273-77.824-78.382545-77.824z m-70.330182 44.171636c-49.803636-134.795636-178.734545-231.051636-330.379636-231.051636-150.993455 0-279.458909 95.418182-329.681455 229.376-2.513455-3.072-5.445818-5.678545-8.285091-8.378182 28.392727-163.141818 168.820364-287.185455 338.152727-287.185454 168.494545 0 308.503273 122.833455 337.873455 284.858181-2.932364 3.909818-5.585455 7.959273-7.68 12.381091z" p-id="14786"></path></svg>