<?xml version="1.0" standalone="no"?><!DOCTYPE svg PUBLIC "-//W3C//DTD SVG 1.1//EN" "http://www.w3.org/Graphics/SVG/1.1/DTD/svg11.dtd"><svg t="1607659808037" class="icon" viewBox="0 0 1024 1024" version="1.1" xmlns="http://www.w3.org/2000/svg" p-id="6781" xmlns:xlink="http://www.w3.org/1999/xlink" width="200" height="200"><defs><style type="text/css"></style></defs><path d="M981.333333 554.666667 42.666667 554.666667c-23.466667 0-42.666667-19.2-42.666667-42.666667 0-23.466667 19.2-42.666667 42.666667-42.666667l938.666667 0c23.466667 0 42.666667 19.2 42.666667 42.666667C1024 535.466667 1004.8 554.666667 981.333333 554.666667zM981.333333 213.333333 42.666667 213.333333c-23.466667 0-42.666667-19.2-42.666667-42.666667s19.2-42.666667 42.666667-42.666667l938.666667 0c23.466667 0 42.666667 19.2 42.666667 42.666667S1004.8 213.333333 981.333333 213.333333zM42.666667 810.666667l938.666667 0c23.466667 0 42.666667 19.2 42.666667 42.666667 0 23.466667-19.2 42.666667-42.666667 42.666667L42.666667 896c-23.466667 0-42.666667-19.2-42.666667-42.666667C0 829.866667 19.2 810.666667 42.666667 810.666667z" p-id="6782"></path></svg>