<?xml version="1.0" standalone="no"?><!DOCTYPE svg PUBLIC "-//W3C//DTD SVG 1.1//EN" "http://www.w3.org/Graphics/SVG/1.1/DTD/svg11.dtd"><svg t="1693899540314" class="icon" viewBox="0 0 1024 1024" version="1.1" xmlns="http://www.w3.org/2000/svg" p-id="6926" xmlns:xlink="http://www.w3.org/1999/xlink" width="700" height="700"><path d="M525.473684 1024L296.421053 808.421053H161.684211c-88.926316 0-161.684211-72.757895-161.684211-161.684211V161.684211c0-88.926316 72.757895-161.684211 161.684211-161.684211h700.631578c88.926316 0 161.684211 72.757895 161.684211 161.684211v485.052631c0 88.926316-72.757895 161.684211-161.684211 161.684211h-110.48421l-226.357895 215.578947z m0-110.484211l172.463158-164.378947 24.252632-21.557895H862.315789c45.810526 0 80.842105-35.031579 80.842106-80.842105V161.684211c0-45.810526-35.031579-80.842105-80.842106-80.842106H161.684211C115.873684 80.842105 80.842105 115.873684 80.842105 161.684211v485.052631c0 45.810526 35.031579 80.842105 80.842106 80.842105h167.073684l24.252631 21.557895 172.463158 164.378947z" p-id="6927"></path><path d="M269.473684 404.210526m-80.842105 0a80.842105 80.842105 0 1 0 161.68421 0 80.842105 80.842105 0 1 0-161.68421 0Z" p-id="6928"></path><path d="M512 404.210526m-80.842105 0a80.842105 80.842105 0 1 0 161.68421 0 80.842105 80.842105 0 1 0-161.68421 0Z" p-id="6929"></path><path d="M754.526316 404.210526m-80.842105 0a80.842105 80.842105 0 1 0 161.68421 0 80.842105 80.842105 0 1 0-161.68421 0Z" p-id="6930"></path></svg>
