<?xml version="1.0" standalone="no"?><!DOCTYPE svg PUBLIC "-//W3C//DTD SVG 1.1//EN" "http://www.w3.org/Graphics/SVG/1.1/DTD/svg11.dtd"><svg t="1730172257238" class="icon" viewBox="0 0 1024 1024" version="1.1" xmlns="http://www.w3.org/2000/svg" p-id="29111" xmlns:xlink="http://www.w3.org/1999/xlink" width="200" height="200"><path d="M145.7 906.4l31.4-94.2c-30.9-42.3-49.1-94.4-49.1-150.8v-298.8c0-141.4 114.4-255.9 255.9-255.9h298.8c141.4 0 255.9 114.4 255.9 255.9v298.8c0 141.4-114.4 255.9-255.9 255.9H383.9c-52.6 0-101.5-15.8-142.1-43l-96.1 32.1z m105.6-102.7l26.1 17.4c31.3 20.9 68 32.2 106.6 32.2h298.8c106.1 0 191.9-85.9 191.9-191.9v-298.8c0-106.1-85.9-191.9-191.9-191.9H383.9c-106.1 0-191.9 85.9-191.9 191.9v298.8c0 41.3 13 80.5 36.8 113.1l19.5 26.7-1.4 4.1 4.4-1.6z" p-id="29112"></path><path d="M387.1 363.6c-21.6 3.8-33.9-2.7-37.1-19.2-1.9-9.7-0.5-17.1 4.2-22.3 4.7-5.2 13.1-8.7 25.3-10.6 18.1-2.8 34.7-5.7 49.5-8.7 14.9-3 29-7.6 42.5-13.8 10-4.4 18.7-6.2 26-5.4 7.4 0.8 12.8 5.6 16.2 14.3 4.4 10.6 5 18.7 1.9 24.2s-10.6 10.4-22.5 14.8c-5.3 2.2-11.1 4.1-17.4 5.9s-12 3.4-17.4 4.9v60.5H503c10 0 17.1 2.3 21.1 6.8 4.1 4.5 6.1 10.9 6.1 19s-2.3 14.6-6.8 19.5c-4.5 4.8-11.3 7.3-20.4 7.3h-44.6v5.6c3.8 4.7 8 10.2 12.7 16.7 4.7 6.4 9.5 12.9 14.3 19.5 4.8 6.6 9.5 12.9 13.8 19 4.4 6.1 7.8 11 10.3 14.8 7.5 10.6 11.2 19.6 11 27s-4 14.2-11.5 20.4c-7.2 5.9-14.2 8.3-21.1 7-6.9-1.3-13.5-7.4-19.7-18.3-0.9-1.6-2.3-3.8-4-6.8s-3.7-6.2-5.9-9.6v143.6c0 10.3-1.3 17.4-3.8 21.1-2.5 3.8-8.3 5.6-17.4 5.6-8.8 0-15.6-1.9-20.4-5.6-4.8-3.8-7.3-10.8-7.3-21.1V566.8c-3.1 6.6-6.4 13.6-9.9 21.1-3.4 7.5-7.4 15.8-11.7 24.9-4.4 8.4-10.3 14.6-17.8 18.5-7.5 3.9-15.3 2.7-23.5-3.5-7.5-5.9-11.2-13-11-21.1s2.7-16.6 7.7-25.3c10-16.6 20-34.6 30-54s19.2-41.6 27.7-66.6h-41.3c-9.1 0-15.6-2.4-19.7-7.3-4.1-4.8-6.1-11.3-6.1-19.5 0-8.1 1.9-14.5 5.6-19 3.8-4.5 10.5-6.8 20.2-6.8h49.7v-47.9c-2.8 0.6-6.4 1.2-10.8 1.6-4.4 0.5-8.1 1-11.3 1.6h-0.1zM659.3 464c-3.4-10.3-4-18.2-1.6-23.7s7.6-10.2 15.7-14.3c7.2-3.4 14.6-3.5 22.3-0.2 7.7 3.3 13.2 10.4 16.7 21.4 4.7 17.8 9.5 36.5 14.5 56.1s10 39.2 15 58.9 9.8 39.3 14.3 58.7 8.5 37.7 12 54.9c2.5 11 2.5 20.2 0 27.7s-8.6 12-18.3 13.6c-10.6 1.9-18.5 0.3-23.7-4.7-5.2-5-8.7-13.1-10.6-24.4-0.6-2.5-1.1-4.9-1.4-7.3-0.3-2.3-0.8-4.8-1.4-7.3l-155.3 11.7c-11.9 0.9-21.7 0.2-29.3-2.3-7.7-2.5-13.3-6.3-16.9-11.3-3.6-5-5.3-11-5.2-18.1 0.2-7 2-14.6 5.4-22.8 18.1-47.6 35-98.3 50.7-152.3 15.6-54 31.4-111.6 47.4-172.9 2.5-8.8 6.2-15.9 11-21.4 4.8-5.5 12.4-7.4 22.8-5.9 11.3 2.5 18.1 7.2 20.7 14.1 2.5 6.9 2.2 16.1-0.9 27.7-15 56-29.7 107.9-44.1 155.6s-28.3 92.1-41.8 133.1c-2.5 7.8-3 13.1-1.4 16 1.6 2.8 6.3 3.8 14.1 2.8 17.8-1.3 36.4-2.5 55.6-3.8 19.2-1.3 37.9-2.5 56.1-3.8-6.3-27.5-13-54.7-20.2-81.4-7.2-26.8-14.5-51.4-22.1-73.9v-0.5z" p-id="29113"></path></svg>