<svg width="181" height="181" viewBox="0 0 181 181" fill="none" xmlns="http://www.w3.org/2000/svg">
<path d="M126.496 54.8779L128.433 62.8384L134.359 68.496L126.398 70.4329L120.74 76.3585L118.804 68.398L112.878 62.7403L120.838 60.8034L126.496 54.8779Z" fill="#999999" fill-opacity="0.2"/>
<path d="M13.2471 105.231L15.9884 107.587L19.5677 108.092L17.2115 110.834L16.7066 114.413L13.9653 112.057L10.386 111.552L12.7422 108.81L13.2471 105.231Z" fill="#999999" fill-opacity="0.2"/>
<path d="M162.159 100.657L163.201 104.938L166.387 107.981L162.106 109.022L159.064 112.209L158.022 107.928L154.835 104.885L159.116 103.844L162.159 100.657Z" fill="#999999" fill-opacity="0.2"/>
<path d="M72.4485 143.811L76.8962 147.634L82.7034 148.453L78.8806 152.9L78.0614 158.708L73.6137 154.885L67.8064 154.066L71.6293 149.618L72.4485 143.811Z" fill="#999999" fill-opacity="0.2"/>
<g clip-path="url(#clip0_6017_478986)">
<path fill-rule="evenodd" clip-rule="evenodd" d="M95.9171 116.505L75.4782 120.591L75.434 120.837C74.2572 127.39 78.6153 133.656 85.1681 134.833L113.212 139.869L121.432 151.144L123.136 141.651C129.689 142.828 135.955 138.47 137.132 131.917L140.328 114.119C141.505 107.567 137.147 101.301 130.594 100.124L103.98 95.3443L105.375 102.32C105.703 103.963 105.681 105.594 105.36 107.136C107.057 106.504 108.934 106.284 110.851 106.581C116.829 107.507 120.925 113.104 119.999 119.081C119.703 120.993 118.928 122.715 117.814 124.14C117.685 124.345 117.627 124.512 117.598 124.636C117.567 124.771 117.564 124.881 117.562 125.014C117.558 125.268 117.514 127.017 117.496 127.723C117.475 128.559 116.67 129.149 115.865 128.915C115.138 128.704 113.296 128.169 112.998 128.085L112.965 128.076C112.812 128.033 112.706 128.004 112.551 127.992C112.396 127.979 112.159 127.981 111.787 128.045C110.422 128.38 108.971 128.457 107.498 128.229C101.527 127.304 97.4333 121.718 98.3481 115.747C97.5816 116.078 96.7689 116.334 95.9171 116.505ZM105.464 112.667C104.753 112.557 104.086 113.044 103.976 113.756L103.613 116.1C103.503 116.811 103.99 117.478 104.702 117.588C105.414 117.698 106.08 117.21 106.19 116.499L106.553 114.155C106.663 113.443 106.176 112.777 105.464 112.667ZM105.393 119.648C105.369 119.392 105.408 118.934 105.699 118.979L111.218 119.834C111.509 119.879 111.41 120.327 111.309 120.565C110.833 121.693 109.626 122.914 107.956 122.655C106.286 122.397 105.506 120.868 105.393 119.648ZM113.353 113.889C112.641 113.779 111.975 114.266 111.865 114.978L111.502 117.321C111.391 118.033 111.879 118.699 112.591 118.81C113.302 118.92 113.968 118.432 114.079 117.721L114.442 115.377C114.552 114.665 114.064 113.999 113.353 113.889Z" fill="#999999" fill-opacity="0.22"/>
<path fill-rule="evenodd" clip-rule="evenodd" d="M40.3633 96.8833C39.0581 90.3549 43.2924 84.0044 49.8209 82.6993L87.6477 75.1369C94.1762 73.8317 100.527 78.066 101.832 84.5945L105.377 102.326C106.682 108.854 102.448 115.205 95.9192 116.51L67.9794 122.096L59.9824 133.53L58.0915 124.072C51.5633 125.377 45.2133 121.143 43.9082 114.615L40.3633 96.8833ZM59.3362 106.088C61.5025 105.655 62.9075 103.548 62.4744 101.381C62.0413 99.215 59.9341 97.81 57.7678 98.2431C55.6016 98.6762 54.1966 100.783 54.6296 102.95C55.0627 105.116 57.1699 106.521 59.3362 106.088ZM76.5955 98.559C77.0286 100.725 75.6236 102.832 73.4573 103.266C71.291 103.699 69.1838 102.294 68.7507 100.127C68.3176 97.9611 69.7227 95.8539 71.8889 95.4208C74.0552 94.9877 76.1624 96.3928 76.5955 98.559ZM87.7757 100.478C89.9419 100.045 91.347 97.9382 90.9139 95.7719C90.4808 93.6057 88.3736 92.2006 86.2073 92.6337C84.041 93.0668 82.636 95.174 83.0691 97.3402C83.5022 99.5065 85.6094 100.912 87.7757 100.478Z" fill="#999999" fill-opacity="0.4"/>
</g>
<defs>
<clipPath id="clip0_6017_478986">
<rect width="104" height="84" fill="white" transform="translate(38 68.0156)"/>
</clipPath>
</defs>
</svg>
