<svg width="20" height="20" viewBox="0 0 20 20" fill="none" xmlns="http://www.w3.org/2000/svg">
<path fill-rule="evenodd" clip-rule="evenodd" d="M10.0001 10.0016C12.3017 10.0016 14.1676 8.13569 14.1676 5.83403C14.1676 3.53237 12.3017 1.6665 10.0001 1.6665C7.69841 1.6665 5.83254 3.53237 5.83254 5.83403C5.83254 8.13569 7.69841 10.0016 10.0001 10.0016ZM2.64955 16.8432C2.48495 17.6551 3.17165 18.3333 4.00007 18.3333L16.0001 18.3333C16.8285 18.3333 17.5152 17.6551 17.3506 16.8432C17.0599 15.4092 16.3534 14.08 15.3034 13.03C13.8968 11.6234 11.9892 10.8333 10.0001 10.8333C8.01095 10.8333 6.10329 11.6234 4.69677 13.03C3.64677 14.08 2.94026 15.4092 2.64955 16.8432Z" fill="#2E2D2B" fill-opacity="0.4"/>
</svg>
