<?xml version="1.0" standalone="no"?><!DOCTYPE svg PUBLIC "-//W3C//DTD SVG 1.1//EN" "http://www.w3.org/Graphics/SVG/1.1/DTD/svg11.dtd"><svg t="1620875833319" class="icon" viewBox="0 0 1024 1024" version="1.1" xmlns="http://www.w3.org/2000/svg" p-id="2081" data-spm-anchor-id="a313x.7781069.0.i9" width="16" height="16" xmlns:xlink="http://www.w3.org/1999/xlink"><defs><style type="text/css"></style></defs><path d="M754.133333 242.773333c-10.88-10.88-26.666667-14.933333-41.386666-10.88-14.72 4.053333-26.24 15.786667-30.08 30.506667-2.986667 11.306667-21.333333 69.973333-40.32 130.133333-48.64-69.333333-119.04-181.12-138.026667-271.146666-1.28-8.533333-5.333333-16.853333-12.16-23.466667a42.666667 42.666667 0 0 0-60.16 0.213333l-0.426667 0.426667c-88.96 90.666667-161.28 261.12-155.093333 395.306667-19.2-24.96-33.28-49.066667-36.906667-67.84-3.626667-18.346667-18.56-32.213333-37.12-34.346667-18.56-2.133333-36.266667 8.106667-43.733333 25.173333-30.08 67.626667-42.666667 142.506667-36.053333 218.24 17.28 134.826667 117.546667 244.906667 261.333333 287.146667 37.12 11.093333 75.52 16.853333 114.346667 17.066667 147.413333 0 325.973333-85.76 382.293333-249.813334 71.68-208-48.426667-369.28-126.506667-446.72z m46.293334 418.346667C757.546667 785.92 612.906667 853.333333 498.986667 853.333333c-30.506667-0.213333-61.013333-4.693333-90.453334-13.44-87.04-25.386667-185.6-95.573333-200.746666-214.186666-2.346667-26.453333-1.493333-53.333333 2.133333-79.573334 49.066667 64.426667 114.346667 120.106667 125.013333 128.853334 14.72 12.373333 36.053333 13.226667 51.84 2.346666 15.786667-11.093333 22.186667-31.146667 15.786667-49.28l-30.933333-86.613333c-28.373333-79.146667 7.466667-221.653333 74.24-323.84 56.96 141.653333 173.226667 286.933333 178.986666 294.186667 9.813333 12.16 25.6 18.133333 40.96 15.146666 15.36-2.773333 27.946667-14.08 32.853334-29.013333 3.84-11.946667 26.026667-81.493333 43.946666-138.666667 53.12 71.04 100.693333 177.066667 57.813334 301.866667z" p-id="2082"></path></svg>