<?xml version="1.0" standalone="no"?><!DOCTYPE svg PUBLIC "-//W3C//DTD SVG 1.1//EN" "http://www.w3.org/Graphics/SVG/1.1/DTD/svg11.dtd"><svg t="1692881455214" class="icon" viewBox="0 0 1024 1024" version="1.1" xmlns="http://www.w3.org/2000/svg" p-id="5689" xmlns:xlink="http://www.w3.org/1999/xlink" width="48" height="48"><path d="M491.55306667 62.39999999L144.17493332 62.39999999c-45.14325333 0-81.78570667 36.62112-81.78570665 81.78570668l0 735.62986666c0 45.14325333 36.62208 81.78474667 81.78570667 81.78474667l735.62879999 0c45.14421333 0 81.78570667-36.62112 81.78570667-81.78474667L961.5904 533.5136c0.02046603-0.35917973 0.02046603-0.71836053 0.02046603-1.07753599 0-16.92341333-13.73066667-30.65418667-30.67456-30.65418669-16.92341333 0-30.65418667 13.73066667-30.65418667 30.65418669l0 326.92373331c0 22.61098667-18.44096 40.93216-40.93333333 40.93216L164.63146667 900.29333333c-22.61194667 0-40.93216-18.44096-40.93216-40.93216L123.6992 164.64213333c0-22.61194667 18.44096-40.93333333 40.93216-40.93333333l326.92266667 0 0 0c16.94389333 0 30.67456-13.73066667 30.67456-30.65418667S508.49706668 62.39999999 491.55306667 62.39999999L491.55306667 62.39999999Z" fill="#333333" p-id="5690"></path><path d="M961.6096 93.05386667c0-0.07981804-0.02046603-0.14019308-0.02046603-0.22001067l0-2.97270401c0-6.90526934-2.95325867-13.13205333-7.644096-17.96213333-0.31927254-0.37964693-0.65900907-0.73882666-0.99772373-1.09800534-0.22001067-0.19852053-0.41853226-0.39908908-0.63854293-0.57816746-4.84945067-4.809536-11.15605333-7.82317866-18.16159999-7.82317866L743.81546667 62.39999999c-15.16736 0-27.46144 13.73066667-27.46144 30.65418668s12.29397332 30.65418667 27.46144 30.65418666l112.73920001 0L555.61706667 424.6464c-11.95530667 11.95530667-11.95530667 31.37248 0 43.34730667 11.97365333 11.97365333 31.39296 11.97365333 43.34730666 0l301.31733334-301.31733334L900.28053333 280.17386667c0 15.16736 13.73066667 27.46144 30.65418667 27.46144s30.65418667-12.29397332 30.65418667-27.46144L961.58933333 93.27359999C961.58933333 93.1936 961.6096 93.13386667 961.6096 93.05386667Z" fill="#333333" p-id="5691"></path></svg>