<?xml version="1.0" standalone="no"?><!DOCTYPE svg PUBLIC "-//W3C//DTD SVG 1.1//EN" "http://www.w3.org/Graphics/SVG/1.1/DTD/svg11.dtd"><svg t="1694069454680" class="icon" viewBox="0 0 1024 1024" version="1.1" xmlns="http://www.w3.org/2000/svg" p-id="24202" xmlns:xlink="http://www.w3.org/1999/xlink" width="48" height="48"><path d="M755.3 877.4c-5 0-10-1.2-14.6-3.6l-204-107.3c-15.9-8.3-34.8-8.3-50.7 0L281.9 873.7c-10.7 5.6-23.3 4.7-33-2.4-9.7-7-14.5-18.8-12.4-30.6l39-227.2c3-17.7-2.8-35.7-15.6-48.2L94.8 404.4c-8.6-8.4-11.6-20.6-7.9-32s13.4-19.6 25.2-21.3l228.2-33.2c17.7-2.6 33-13.7 41-29.8l102-206.7c5.4-10.8 16.1-17.4 28-17.4h0.1c12 0 22.7 6.7 27.9 17.4l102 206.7c7.9 16.1 23.3 27.2 41 29.8l228.2 33.2c11.9 1.7 21.6 9.9 25.3 21.3s0.7 23.7-7.9 32l-165.1 161c-12.8 12.5-18.7 30.5-15.6 48.2l39 227.2c2 11.8-2.7 23.5-12.5 30.6-5.5 4-11.9 6-18.4 6z m11.6-53.5zM170.4 399.5L299.2 525c26.1 25.4 38 62.1 31.8 98l-30.4 177.3 159.2-83.7c32.3-17 70.8-17 103.1 0l159.2 83.7L691.7 623c-6.1-35.9 5.8-72.6 31.8-98l128.8-125.5-178-25.9c-36.1-5.3-67.2-27.9-83.4-60.6l-79.6-161.3L431.7 313c-16.1 32.7-47.3 55.3-83.4 60.6l-177.9 25.9z m318.5-293.2z" fill="#ff8373" p-id="24203"></path></svg>