<?xml version="1.0" standalone="no"?>
<!DOCTYPE svg PUBLIC "-//W3C//DTD SVG 1.1//EN" "http://www.w3.org/Graphics/SVG/1.1/DTD/svg11.dtd">
<svg t="1736427697812" class="icon" viewBox="0 0 1024 1024" version="1.1"
  xmlns="http://www.w3.org/2000/svg" p-id="7815" xmlns:xlink="http://www.w3.org/1999/xlink"
  width="256" height="256">
  <path
    d="M280.1 809.3c-10.8 0-21.7-1.4-32.4-4.3-32.1-8.6-59-29.2-75.6-58L71.2 572.3c-9.2-16-7.7-36 3.9-50.3 11.5-14.4 30.7-20.2 48.3-14.6L258.2 550l70.2-54.7-239.5-128c-14.3-7.7-23.4-22.5-23.6-38.7-0.3-16.2 8.3-31.3 22.4-39.5l97-55.8c10.1-5.8 22.1-7.5 33.4-4.6L558.3 316l62.2-48.4c69.4-54.3 162.8-65.7 243.5-29.7 42.2 18.8 74.6 53.9 88.9 96.3 4.3 12.8 6.5 24.5 6.5 34.8 0 41.2-22.2 79.7-57.8 100.5l-559.4 323c-19.3 11.1-40.6 16.8-62.1 16.8z m-73.9-182l43.3 75c4.7 8.1 12.3 13.9 21.3 16.4 9 2.5 18.5 1.2 26.6-3.5l559.3-323c8.1-4.7 13-13.1 13.2-22.5-0.1-0.7-0.5-2.9-1.8-6.7-6.3-18.8-21.1-34.6-40.6-43.2-50.4-22.5-108.7-15.4-152.1 18.5L595.9 400a44.49 44.49 0 0 1-38.6 8l-343.9-88.3-11.4 6.6 229.1 122.4c13.3 7.1 22.2 20.5 23.5 35.6s-5.1 29.8-17 39.1l-143 111.5c-11.6 9.1-27 11.8-41 7.4l-47.4-15z"
    p-id="7816"></path>
</svg>