<?xml version="1.0" standalone="no"?><!DOCTYPE svg PUBLIC "-//W3C//DTD SVG 1.1//EN" "http://www.w3.org/Graphics/SVG/1.1/DTD/svg11.dtd"><svg t="1727265283635" class="icon" viewBox="0 0 1024 1024" version="1.1" xmlns="http://www.w3.org/2000/svg" p-id="9702" xmlns:xlink="http://www.w3.org/1999/xlink" width="200" height="200"><path d="M207.7 63.4h165.6c1.2 12.7 0.1 25.9 4.5 38.1 4.7 13.2 14.4 24.5 26.8 31.1 7.9 4.3 16.9 6.6 25.9 6.7h151.3c10.5-0.1 21.3 0.9 31.4-2.7 21-6.4 37-26 39.3-47.8 0.7-8.5 1.1-16.9 1.5-25.4h165.3c26.4 0.8 52.5 10.6 72.5 27.9 20.7 17.6 34.9 42.6 39.2 69.4 0.9 4.7 1 9.5 1.7 14.2v660.8c-0.3 2.1-0.5 4.2-0.7 6.3-2.5 29.3-16.8 57.3-38.9 76.6-21.1 18.7-49.2 29.3-77.4 29H225c-10.7-0.1-21.5 0.5-32.1-1.4-26.6-4.1-51.5-17.8-69.2-38-19-21.3-29.6-49.9-29-78.4V177c0.4-32.8 15.9-64.9 41-86 20-17 45.9-26.8 72-27.6m73.2 266.7c-7.6 1.4-14.2 6.8-17.1 13.9-3.2 7.7-2 17 3.2 23.5 4.2 5.4 11 8.8 17.9 8.9h452.4c3.8 0 7.7 0.3 11.4-0.9 8.4-2.3 15-9.9 16.4-18.4 1.1-6-0.3-12.5-3.9-17.4-3.9-5.7-10.5-9.5-17.5-9.8H284c-1-0.1-2 0-3.1 0.2m-1.2 174.8c-10.9 2.5-18.8 13.7-17.6 24.8 0.8 11.2 10.7 20.9 21.9 21.2h459c6-0.1 11.8-2.8 15.9-7 5.7-5.9 8-14.9 5.6-22.8-2.6-9.5-11.7-16.6-21.5-16.8H285c-1.8 0-3.6 0.2-5.3 0.6m3.8 173.9c-9.5 0.6-18 7.7-20.5 16.8-2.4 8.1 0 17.4 6.1 23.2 4.3 4.4 10.5 6.7 16.6 6.7h450.9c4.6 0 9.4 0.2 13.8-1.5 7.6-2.8 13.4-9.7 14.7-17.6 1.5-7.6-1.1-15.8-6.7-21.1-4.2-4.2-10.2-6.5-16.1-6.6H544.2c-86.9 0.1-173.8-0.1-260.7 0.1z" p-id="9703"></path><path d="M448.1 63.4h136.6c11.3 0.8 21.1 10.8 21.4 22.1 1 12.3-9.4 24.2-21.8 24.5h-135c-6.7 0-13.3-3.4-17.4-8.7-6.1-7.4-6.8-18.7-1.7-26.8 3.8-6.3 10.7-10.4 17.9-11.1z" p-id="9704"></path></svg>