<?xml version="1.0" standalone="no"?>
<!DOCTYPE svg PUBLIC "-//W3C//DTD SVG 1.1//EN" "http://www.w3.org/Graphics/SVG/1.1/DTD/svg11.dtd">
<svg t="1736499015961" class="icon" viewBox="0 0 1024 1024" version="1.1"
  xmlns="http://www.w3.org/2000/svg" p-id="7685" xmlns:xlink="http://www.w3.org/1999/xlink"
  width="256" height="256">
  <path
    d="M515 959.7c-24.7 0-49.5-7.1-71.1-21.4L180.2 763.8c-36.1-23.9-57.7-64.1-57.7-107.4V367.2c0-43.3 21.6-83.5 57.7-107.4L444 85.3c43.2-28.6 99-28.6 142.1 0l263.8 174.5c36.1 23.9 57.7 64.1 57.7 107.4v289.1c0 43.3-21.6 83.5-57.7 107.4L586.1 938.3c-21.6 14.3-46.3 21.4-71.1 21.4z m-21.6-96.1c13.2 8.7 30.1 8.7 43.3 0l263.7-174.5c11-7.3 17.6-19.5 17.6-32.7V367.2c0-13.2-6.6-25.4-17.6-32.7L536.7 160c-13.2-8.7-30.2-8.7-43.3 0L229.6 334.6c-11 7.3-17.6 19.5-17.6 32.7v289.1c0 13.2 6.6 25.4 17.6 32.7l263.8 174.5z"
    p-id="7686"></path>
  <path
    d="M346.3 481.8c-14.2 0-28.2-6.7-36.9-19.3-14.1-20.3-9-48.2 11.3-62.3l332.4-230.3c20.4-14.1 48.3-9 62.3 11.3 14.1 20.3 9 48.2-11.3 62.3L371.8 473.8c-7.8 5.4-16.7 8-25.5 8z"
    p-id="7687"></path>
  <path
    d="M515 955c-24.7 0-44.8-20.1-44.8-44.8V576.3l-313-207.1c-20.6-13.6-26.3-41.4-12.6-62.1 13.6-20.6 41.4-26.3 62.1-12.6l333 220.4c12.5 8.3 20.1 22.3 20.1 37.4v358c0 24.6-20 44.7-44.8 44.7z"
    p-id="7688"></path>
  <path
    d="M515.1 597c-14.5 0-28.8-7-37.4-20.1-13.6-20.6-8-48.4 12.6-62.1l319.6-211.5c20.6-13.6 48.4-8 62.1 12.6 13.6 20.6 8 48.4-12.6 62.1L539.7 589.6c-7.6 5-16.1 7.4-24.6 7.4z"
    p-id="7689"></path>
</svg>