<?xml version="1.0" standalone="no"?><!DOCTYPE svg PUBLIC "-//W3C//DTD SVG 1.1//EN" "http://www.w3.org/Graphics/SVG/1.1/DTD/svg11.dtd"><svg t="1703041571843" class="icon" viewBox="0 0 1024 1024" version="1.1" xmlns="http://www.w3.org/2000/svg" p-id="2317" xmlns:xlink="http://www.w3.org/1999/xlink" width="700" height="700"><path d="M1001 823.182c0 98.2-79.618 177.818-177.818 177.818H200.818C102.619 1001 23 921.382 23 823.182V200.818C23 102.576 102.619 23 200.818 23h622.363C921.382 23 1001 102.576 1001 200.818v622.364z" fill="#52B332" p-id="2318"></path><path d="M512 774.82c-42.783 0-79.467-6.121-116.129-18.32-24.463 12.199-61.125 42.762-73.367 48.883-24.441 12.242-18.32-12.221-18.32-12.221l12.221-73.367c-73.346-48.883-116.15-128.35-116.15-213.938 0-152.813 140.592-275.063 311.746-275.063 103.908 0 201.717 48.904 256.721 116.15L463.096 487.537s-24.441 12.221-48.904-6.1l-48.883-36.662s-36.684-30.606-18.342 18.298l48.904 110.051s6.1 30.563 42.783 12.199c30.563-12.199 256.721-152.813 354.529-207.816 18.32 36.662 30.563 79.467 30.563 122.25 0 146.692-140.613 275.063-311.746 275.063z" fill="#FFFFFF" p-id="2319"></path></svg>