<?xml version="1.0" standalone="no"?><!DOCTYPE svg PUBLIC "-//W3C//DTD SVG 1.1//EN" "http://www.w3.org/Graphics/SVG/1.1/DTD/svg11.dtd"><svg t="1730167109838" class="icon" viewBox="0 0 1024 1024" version="1.1" xmlns="http://www.w3.org/2000/svg" p-id="7809" xmlns:xlink="http://www.w3.org/1999/xlink" width="200" height="200"><path d="M579.697778 512a24.462222 24.462222 0 0 0-23.324445 24.462222 23.893333 23.893333 0 0 0 23.324445 21.617778c17.635556 0 30.151111-10.808889 30.151111-21.617778a27.306667 27.306667 0 0 0-30.151111-24.462222zM502.897778 398.222222a27.875556 27.875556 0 0 0 30.151111-29.013333 27.306667 27.306667 0 0 0-30.151111-27.875556 31.288889 31.288889 0 0 0-34.133334 29.013334 31.288889 31.288889 0 0 0 34.133334 29.013333zM512 0a512 512 0 1 0 512 512 512 512 0 0 0-512-512zM415.288889 641.706667a287.288889 287.288889 0 0 1-82.488889-13.084445l-84.195556 42.097778 23.893334-71.68a192.284444 192.284444 0 0 1-94.435556-158.151111c0-113.777778 106.951111-200.248889 237.226667-200.248889a233.244444 233.244444 0 0 1 237.795555 164.977778 113.777778 113.777778 0 0 0-22.755555 0 193.422222 193.422222 0 0 0-200.817778 187.733333 189.44 189.44 0 0 0 6.826667 50.062222z m347.591111 81.92l17.066667 56.888889-63.715556-35.84a344.177778 344.177778 0 0 1-71.68 12.515555 187.164444 187.164444 0 0 1-200.248889-170.666667 187.164444 187.164444 0 0 1 200.248889-170.666666 191.715556 191.715556 0 0 1 201.386667 170.666666 177.493333 177.493333 0 0 1-83.057778 135.395556zM337.92 341.333333c-17.635556 0-36.408889 10.808889-36.408889 29.013334s18.773333 29.013333 36.408889 29.013333a28.444444 28.444444 0 0 0 29.582222-29.013333 27.875556 27.875556 0 0 0-29.582222-29.013334z m372.622222 170.666667a23.893333 23.893333 0 0 0-23.324444 24.462222 23.324444 23.324444 0 0 0 23.324444 21.617778 26.737778 26.737778 0 0 0 29.013334-22.186667 26.737778 26.737778 0 0 0-29.013334-23.893333z" p-id="7810"></path></svg>