<?xml version="1.0" standalone="no"?><!DOCTYPE svg PUBLIC "-//W3C//DTD SVG 1.1//EN" "http://www.w3.org/Graphics/SVG/1.1/DTD/svg11.dtd"><svg t="1695622547893" class="icon" viewBox="0 0 1034 1024" version="1.1" xmlns="http://www.w3.org/2000/svg" p-id="25744" xmlns:xlink="http://www.w3.org/1999/xlink" width="48.46875" height="48"><path d="M0.271631 1011.666626L1011.939245 0l0.978056 0.978055L1.249687 1012.644681z" fill="#ffffff" p-id="25745"></path><path d="M815.527995 230.787419L619.423003 93.365734c-5.828813-4.050531-12.941941-5.73002-19.956276-4.445705-7.014335 1.185521-13.238322 5.137259-17.288853 10.966073L253.590871 569.253766c-3.852944 4.248118-6.322781 9.681758-6.816748 15.609365l-19.659895 237.301858c-0.790348 9.484171 3.556564 18.671961 11.361246 24.105601 4.445705 3.16139 9.879345 4.840879 15.312984 4.840879 3.754151 0 7.607095-0.790348 11.16366-2.469836l216.061267-99.682588c5.43364-2.469836 9.681758-6.717954 12.447974-11.855213l328.587003-469.170078c8.496236-11.954007 5.532433-28.650099-6.520367-37.146335zM299.43103 597.014724l213.393845-304.777782 152.339494 106.696922-213.393844 304.777783L284.315633 780.869328l15.115397-183.854604zM695.790338 355.168368L543.450843 248.471445l67.179544-96.02723 152.240701 106.696923-67.08075 96.02723z" fill="#ffffff" p-id="25746"></path><path d="M842.992573 801.319572H556.590371c-14.720224 0-26.773024-11.954007-26.773024-26.773024 0-14.720224 11.954007-26.773024 26.773024-26.773024h286.303408c14.720224 0 26.773024 11.954007 26.773024 26.773024 0 14.819017-11.954007 26.773024-26.67423 26.773024z m0 0" fill="#ffffff" p-id="25747"></path></svg>